<svg width="10" height="10" viewBox="0 0 10 10" fill="none" xmlns="http://www.w3.org/2000/svg">
<path d="M0.792969 0.841797H5.68555C6.2832 0.841797 6.80273 0.90625 7.24414 1.03516C7.68945 1.16016 8.05859 1.33398 8.35156 1.55664C8.64453 1.7793 8.86133 2.04492 9.00195 2.35352C9.14648 2.6582 9.21875 2.98828 9.21875 3.34375C9.21875 3.92578 9.03516 4.43555 8.66797 4.87305C9.08984 5.12305 9.4043 5.44727 9.61133 5.8457C9.81836 6.24414 9.92188 6.69727 9.92188 7.20508C9.92188 7.63086 9.84961 8.01562 9.70508 8.35938C9.56445 8.70312 9.34766 8.99805 9.05469 9.24414C8.76562 9.48633 8.39844 9.67383 7.95312 9.80664C7.51172 9.93555 6.99023 10 6.38867 10H0.792969V0.841797ZM6.40039 4.35742C6.56055 4.35742 6.7168 4.36328 6.86914 4.375C7.13086 4.125 7.26172 3.83984 7.26172 3.51953C7.26172 3.1875 7.13086 2.93164 6.86914 2.75195C6.61133 2.56836 6.23242 2.47656 5.73242 2.47656H2.65039V4.35742H6.40039ZM6.43555 8.38281C6.93555 8.38281 7.31445 8.27539 7.57227 8.06055C7.83398 7.8457 7.96484 7.54297 7.96484 7.15234C7.96484 6.76172 7.83398 6.45703 7.57227 6.23828C7.31445 6.01953 6.93555 5.91016 6.43555 5.91016H2.65039V8.38281H6.43555Z" fill="white"/>
</svg>
