<svg width="12" height="11" viewBox="0 0 12 11" fill="none" xmlns="http://www.w3.org/2000/svg">
<path d="M11.9866 8.41544C12.0011 8.4612 12.0011 8.51066 11.9866 8.55642C11.9781 8.60205 11.9574 8.64418 11.9268 8.67781L9.94933 10.8512C9.90576 10.8981 9.85364 10.9354 9.79607 10.9608C9.73835 10.9873 9.67592 11.0007 9.61291 11H0.234161C0.190727 11.0004 0.148035 10.9882 0.110806 10.9647C0.0736015 10.9382 0.0439026 10.9017 0.0248311 10.859C0.0116597 10.8157 0.0116597 10.7692 0.0248311 10.7259C0.0325826 10.6808 0.0519748 10.6388 0.0809016 10.6045L2.06206 8.43111C2.10564 8.38419 2.15775 8.34691 2.21532 8.32146C2.27293 8.29461 2.33544 8.28125 2.39849 8.2823H11.7623C11.8075 8.2814 11.8518 8.29507 11.8894 8.32146C11.9314 8.33963 11.9659 8.37297 11.9866 8.41544ZM9.95307 4.28803C9.90853 4.24233 9.85665 4.20522 9.79981 4.17838C9.74154 4.15375 9.67947 4.14048 9.61665 4.13922H0.234161C0.190184 4.1399 0.147266 4.15346 0.11027 4.17838C0.073273 4.20329 0.0436758 4.23857 0.0248311 4.2802C0.0119019 4.32354 0.0119019 4.36999 0.0248311 4.41334C0.0311264 4.45889 0.0507106 4.50129 0.0809016 4.53473L2.06206 6.712C2.10661 6.7577 2.15849 6.79481 2.21532 6.82165C2.27349 6.84663 2.33563 6.85991 2.39849 6.86081H11.7623C11.8075 6.86171 11.8518 6.84804 11.8894 6.82165C11.9271 6.79859 11.9561 6.76264 11.9716 6.71984C11.9908 6.67817 11.9971 6.6313 11.9897 6.58571C11.9824 6.54011 11.9617 6.49804 11.9305 6.4653L9.95307 4.28803ZM0.110806 2.68249C0.148035 2.70593 0.190727 2.71812 0.234161 2.71773H9.61665C9.67966 2.71842 9.74209 2.70507 9.79981 2.67857C9.85738 2.65313 9.9095 2.61584 9.95307 2.56892L11.9305 0.395569C11.9611 0.361935 11.9819 0.319803 11.9903 0.274175C12.0032 0.230827 12.0032 0.18438 11.9903 0.141032C11.9748 0.0982246 11.9458 0.0622808 11.9081 0.0392175C11.8705 0.0128284 11.8262 -0.000841767 11.781 5.77751e-05L2.38354 5.77751e-05C2.32049 -0.000995666 2.25798 0.0123682 2.20037 0.0392175C2.1428 0.0646634 2.09069 0.101948 2.04711 0.148864L0.0696879 2.33005C0.0383324 2.36313 0.0174508 2.40551 0.00987858 2.45145C-0.00329286 2.49475 -0.00329286 2.54128 0.00987858 2.58459C0.03414 2.62645 0.0691012 2.66036 0.110806 2.68249Z" fill="#D9D9D9"/>
</svg>
