<svg width="17" height="17" viewBox="0 0 17 17" fill="none" xmlns="http://www.w3.org/2000/svg">
<rect width="17" height="17" rx="2.68421" fill="#303286"/>
<g filter="url(#filter0_i_1098_667)">
<path d="M4.57271 2.77838H12.428C13.8723 2.77838 14.7877 4.45616 14.0611 5.81249L9.21313 14.8616C8.89677 15.4524 8.10395 15.4524 7.78759 14.8616L2.93861 5.81249C2.21297 4.45832 3.12841 2.77838 4.57173 2.77838H4.57271ZM9.21707 12.1479L10.2729 9.94736L12.8204 5.04065C12.9885 4.72659 12.7809 4.32415 12.429 4.32415H9.21806V12.1489L9.21707 12.1479ZM4.18224 5.03959L6.72882 9.94842L7.78463 12.1479V4.32309H4.5737C4.22176 4.32309 4.01418 4.72553 4.18224 5.03959Z" fill="#FAFAFA"/>
</g>
<defs>
<filter id="filter0_i_1098_667" x="2.68457" y="2.77838" width="11.6313" height="12.6705" filterUnits="userSpaceOnUse" color-interpolation-filters="sRGB">
<feFlood flood-opacity="0" result="BackgroundImageFix"/>
<feBlend mode="normal" in="SourceGraphic" in2="BackgroundImageFix" result="shape"/>
<feColorMatrix in="SourceAlpha" type="matrix" values="0 0 0 0 0 0 0 0 0 0 0 0 0 0 0 0 0 0 127 0" result="hardAlpha"/>
<feOffset dy="0.144172"/>
<feGaussianBlur stdDeviation="0.115337"/>
<feComposite in2="hardAlpha" operator="arithmetic" k2="-1" k3="1"/>
<feColorMatrix type="matrix" values="0 0 0 0 0.00255 0 0 0 0 0.322624 0 0 0 0 0.50745 0 0 0 1 0"/>
<feBlend mode="normal" in2="shape" result="effect1_innerShadow_1098_667"/>
</filter>
</defs>
</svg>
